<svg width="192" height="52" viewBox="0 0 192 52" fill="none" xmlns="http://www.w3.org/2000/svg">
<g clip-path="url(#clip0_3_23)">
<path d="M3.82471 14.7649C3.82471 11.9485 6.10788 9.66534 8.92431 9.66534H25.6574C33.5787 9.66534 40 16.0868 40 24.008V27.992C40 35.9133 33.5787 42.3347 25.6574 42.3347H8.92431C6.10788 42.3347 3.82471 40.0515 3.82471 37.2351V14.7649Z" fill="white"/>
<path d="M0 12.3745C0 8.85396 2.85396 6 6.3745 6H27.8884C36.6897 6 43.8247 13.1349 43.8247 21.9363V30.0637C43.8247 38.865 36.6897 46 27.8884 46H6.3745C2.85396 46 0 43.146 0 39.6255V12.3745Z" fill="url(#paint0_linear_3_23)"/>
<path d="M28.4342 24.4315C29.6432 25.1297 29.6428 26.8748 28.4337 27.5725L17.7197 33.7546C16.5106 34.4522 14.9998 33.5795 15 32.1836L15.0022 19.8158C15.0024 18.4199 16.5136 17.5477 17.7224 18.2457L28.4342 24.4315Z" fill="white"/>
</g>
<path d="M53.76 10.8H63.48C68.2 10.8 71.4 12.24 73.08 15.12C73.9067 16.5067 74.48 18.0133 74.8 19.64C75.12 21.2667 75.28 23.08 75.28 25.08C75.28 27.0533 75.1867 28.72 75 30.08C74.8133 31.44 74.4533 32.7733 73.92 34.08C73.4133 35.36 72.7333 36.4133 71.88 37.24C69.9867 39.08 67.1867 40 63.48 40H53.76V10.8ZM62.76 15H59.2V35.8H62.76C65.6133 35.8 67.5467 34.7733 68.56 32.72C69.4133 30.9333 69.84 28.4933 69.84 25.4C69.84 22.3067 69.4133 19.8667 68.56 18.08C67.5467 16.0267 65.6133 15 62.76 15ZM87.2497 10.8H94.3297L103.29 40H98.0497L95.5697 31.92H85.9697L83.5297 40H78.2497L87.2497 10.8ZM90.7697 15.96L87.2097 27.8H94.3297L90.7697 15.96ZM116.392 40H108.512L102.872 10.8H108.312L112.632 34.6L117.432 10.8H122.832L127.592 34.6L131.952 10.8H137.392L131.752 40H123.872L120.112 21.8L116.392 40ZM146 10.8H153.08L162.04 40H156.8L154.32 31.92H144.72L142.28 40H137L146 10.8ZM149.52 15.96L145.96 27.8H153.08L149.52 15.96ZM182.344 10.8H187.784V40H182.344V27.48H171.544V40H166.104V10.8H171.544V23.32H182.344V10.8Z" fill="#23252B"/>
<defs>
<linearGradient id="paint0_linear_3_23" x1="-6.37198" y1="55.2354" x2="33.5371" y2="0.371378" gradientUnits="userSpaceOnUse">
<stop stop-color="#00FFFF"/>
<stop offset="1" stop-color="#0059FF"/>
</linearGradient>
<clipPath id="clip0_3_23">
<rect width="43.8247" height="40" fill="white" transform="translate(0 6)"/>
</clipPath>
</defs>
</svg>
